<svg xmlns="http://www.w3.org/2000/svg" width="321" height="321" viewBox="0 0 321 321">
  <defs>
    <style>
      .cls-1, .cls-3 {
        fill: none;
      }

      .cls-2 {
        fill-rule: evenodd;
      }

      .cls-3 {
        stroke: #000;
        stroke-width: 2px;
      }
    </style>
  </defs>
  <circle class="cls-1" cx="161" cy="161" r="127"/>
  <path id="View_all_services_I_offer_._View_all_services_I._.offer" data-name="View all services I offer . View all services I. .offer" class="cls-2" d="M91.7,267.127L77.11,278.089l3.073,2.024,10.508-8.3-3.364,13.01,3.141,2.07,4.323-17.725Zm-23.085-.185L66.6,269.231l2.474,2.174,2.011-2.289Zm9.329-10.616-8.215,9.349,2.474,2.173,8.215-9.349Zm-13.454-10.1a2.015,2.015,0,0,1,1.174.7A2.491,2.491,0,0,1,66.3,248.9a3.331,3.331,0,0,1-1.19,2.1l-5.434-6.207q-2.894,2.441-3.217,4.856a5.525,5.525,0,0,0,1.507,4.506,5.327,5.327,0,0,0,4.012,1.923A6.869,6.869,0,0,0,66.69,254.1a7.122,7.122,0,0,0,2.417-3.751,5.567,5.567,0,0,0-1.569-5.012,5.87,5.87,0,0,0-2.96-1.949,5.387,5.387,0,0,0-3.384.307l1.747,2.832A2.6,2.6,0,0,1,64.489,246.231Zm-0.933,6.05a3.041,3.041,0,0,1-2.06.885,2.288,2.288,0,0,1-1.764-.824,2.265,2.265,0,0,1-.567-1.777,3.168,3.168,0,0,1,1.149-1.987Zm-8.439-23.207-7.948,2.311,5.758-5.958L51.3,222.714l-12.727,2.98,1.671,2.783,8.217-2.159L42.534,232.3l1.635,2.723,8.1-2.36-5.792,6.2L48.12,241.6l8.643-9.782ZM30.974,198.22a2.36,2.36,0,0,1-.68-1.24,2.811,2.811,0,0,1-.055-1.815,1.7,1.7,0,0,1,1.192-.794l0.317-.083a17.955,17.955,0,0,1,1.589,2.892,11.026,11.026,0,0,0,1.4,2.341,3.285,3.285,0,0,0,1.581,1.048,3.544,3.544,0,0,0,1.947.014,3.469,3.469,0,0,0,2.273-1.736,4.242,4.242,0,0,0,.246-3.2,5.169,5.169,0,0,0-.914-1.881,5.925,5.925,0,0,0-1.646-1.436c0.055-.039.17-0.109,0.345-0.211q0.577-.343.861-0.552l-0.821-3.152a7.067,7.067,0,0,1-1.467.993,13.282,13.282,0,0,1-2.3.763l-3.729.935a6.778,6.778,0,0,0-2.741,1.168,3.273,3.273,0,0,0-.9,1.8,7.885,7.885,0,0,0,.322,3.307,6.352,6.352,0,0,0,1.761,3.32,4.657,4.657,0,0,0,3.023,1l-0.231-3.028A2.407,2.407,0,0,1,30.974,198.22Zm3.485-4.638a6.513,6.513,0,0,1,1.586-.28,2.064,2.064,0,0,1,1.253.486,2.85,2.85,0,0,1,1,1.5,1.8,1.8,0,0,1-.157,1.4,1.616,1.616,0,0,1-1.027.8,1.374,1.374,0,0,1-1.285-.332,6.041,6.041,0,0,1-1.008-1.59,20.481,20.481,0,0,0-.993-1.812Zm2.294-17.573-17.051,2.1,0.4,3.269,17.051-2.1Zm-0.762-13.358-17.177.309,0.059,3.293,17.177-.309Zm1.377-24.315a6.94,6.94,0,0,0,1.877-3.708,6.327,6.327,0,0,0-.287-4.4A3.76,3.76,0,0,0,36.4,128.2a3.044,3.044,0,0,0-2.614.478,9.161,9.161,0,0,0-2.224,3.27,12.339,12.339,0,0,1-1.569,2.8,0.728,0.728,0,0,1-.654.192,0.781,0.781,0,0,1-.571-0.511,3.58,3.58,0,0,1,.048-1.9,2.76,2.76,0,0,1,.721-1.466,1.919,1.919,0,0,1,1.25-.5l0.111-3.156a4.255,4.255,0,0,0-2.773,1.139,6.907,6.907,0,0,0-1.633,3.527,5.964,5.964,0,0,0,.219,4.1,3.453,3.453,0,0,0,2.378,1.835,3.207,3.207,0,0,0,3.054-.836A17.762,17.762,0,0,0,34.8,132.6a2.625,2.625,0,0,1,.661-0.982,0.865,0.865,0,0,1,.657-0.095,1.048,1.048,0,0,1,.764.613,3.26,3.26,0,0,1,.042,1.978,2.893,2.893,0,0,1-.876,1.655,2.421,2.421,0,0,1-1.609.519l-0.222,3.336A4.755,4.755,0,0,0,37.368,138.336ZM43,112.938a2.014,2.014,0,0,1-.087,1.364,2.49,2.49,0,0,1-1.456,1.465,3.326,3.326,0,0,1-2.413-.1L42.081,108q-3.493-1.459-5.79-.642a5.525,5.525,0,0,0-3.319,3.4A5.327,5.327,0,0,0,33.1,115.2a6.875,6.875,0,0,0,3.91,3.288,7.121,7.121,0,0,0,4.441.435,5.568,5.568,0,0,0,3.741-3.686,5.868,5.868,0,0,0,.381-3.523,5.385,5.385,0,0,0-1.819-2.87L42.029,111.7A2.607,2.607,0,0,1,43,112.938Zm-5.808,1.934a3.034,3.034,0,0,1-1.728-1.428,2.377,2.377,0,0,1,1.248-3.262A3.172,3.172,0,0,1,39,110.3ZM49.473,96.905a19.558,19.558,0,0,1-3.484-2.312,2.6,2.6,0,0,1-.819-1.34,1.827,1.827,0,0,1,.252-1.206,2.89,2.89,0,0,1,1.236-1.075l-1.985-2.311a4.18,4.18,0,0,0-1.616,1.573,2.6,2.6,0,0,0-.362,1.434,5.316,5.316,0,0,0,.732,2.046l-1.536-.879-1.52,2.654,10.8,6.184,1.636-2.858ZM63.647,82.873l-6.777-11.55-2.082,2.671,3.555,5.771q0.3,0.472.616,0.926,0.16,0.214.632,0.924L57.5,80.846l-6.451-2.055-2.125,2.727,12.9,3.693Zm1.506-22.594-2.138-2.17-2.346,2.311,2.138,2.17Zm9.919,10.068-8.734-8.866-2.346,2.311,8.734,8.865Zm7.535-21.512a6.012,6.012,0,0,0-3.474,1.4,5.785,5.785,0,0,0-2.481,4.026,6.694,6.694,0,0,0,1.593,4.811,6.678,6.678,0,0,0,4.17,2.827,5.7,5.7,0,0,0,4.512-1.25A5.986,5.986,0,0,0,89.3,57.43a5.74,5.74,0,0,0-.485-3.849L85.9,55.091a3.207,3.207,0,0,1,.432,1.972,2.219,2.219,0,0,1-.9,1.351,2.443,2.443,0,0,1-2.145.475,5.035,5.035,0,0,1-2.48-2.048,4.354,4.354,0,0,1-1.129-2.709,2.461,2.461,0,0,1,1.054-1.861,2.247,2.247,0,0,1,1.5-.515,2.357,2.357,0,0,1,1.477.72l2.237-2.424A5.422,5.422,0,0,0,82.606,48.835Zm20.9-2.011a2.015,2.015,0,0,1-.95.983,2.492,2.492,0,0,1-2.059.173,3.331,3.331,0,0,1-1.774-1.638L106,42.467q-1.716-3.375-4-4.24a5.524,5.524,0,0,0-4.731.439,5.326,5.326,0,0,0-2.788,3.468,6.871,6.871,0,0,0,.848,5.038,7.126,7.126,0,0,0,3.1,3.209A5.569,5.569,0,0,0,103.678,50a5.872,5.872,0,0,0,2.572-2.437,5.387,5.387,0,0,0,.474-3.364l-3.156,1.055A2.607,2.607,0,0,1,103.5,46.823Zm-5.678-2.289a3.038,3.038,0,0,1-.391-2.208A2.376,2.376,0,0,1,100.5,40.65a3.168,3.168,0,0,1,1.672,1.572Zm19.792-2.062a6.939,6.939,0,0,0,4.142-.329,6.323,6.323,0,0,0,3.6-2.536,3.757,3.757,0,0,0,.4-3.246,3.044,3.044,0,0,0-1.769-1.983,9.164,9.164,0,0,0-3.951-.195,12.348,12.348,0,0,1-3.21.122,0.728,0.728,0,0,1-.5-0.459,0.779,0.779,0,0,1,.138-0.753,3.586,3.586,0,0,1,1.645-.948A2.766,2.766,0,0,1,119.738,32a1.923,1.923,0,0,1,1.076.808l2.751-1.55a4.255,4.255,0,0,0-2.416-1.773,6.914,6.914,0,0,0-3.862.444,5.969,5.969,0,0,0-3.39,2.326,3.455,3.455,0,0,0-.327,2.986,3.207,3.207,0,0,0,2.305,2.171,17.761,17.761,0,0,0,5.3-.119,2.623,2.623,0,0,1,1.182.053,0.864,0.864,0,0,1,.423.512,1.042,1.042,0,0,1-.125.972,3.254,3.254,0,0,1-1.666,1.066,2.891,2.891,0,0,1-1.869.114,2.422,2.422,0,0,1-1.282-1.1l-2.963,1.548A4.751,4.751,0,0,0,117.617,42.473Zm35.343-7.094-1.577-17.107-3.454.319L149.506,35.7Zm23.819-2.535a5.309,5.309,0,0,0,2,2.591A7.226,7.226,0,0,0,181.9,36.68a6.158,6.158,0,0,0,4.811-1.161,6.415,6.415,0,0,0,2.493-4.362,6.337,6.337,0,0,0-1.1-4.85,6.212,6.212,0,0,0-4.308-2.5,6.8,6.8,0,0,0-3.393.312,5.552,5.552,0,0,0-2.612,1.981,6.73,6.73,0,0,0-1.267,3.022A7.556,7.556,0,0,0,176.779,32.844Zm4.336-5.722a2.873,2.873,0,0,1,4.283.638,4.1,4.1,0,0,1,.449,2.91,4.181,4.181,0,0,1-1.285,2.7,2.874,2.874,0,0,1-4.283-.638,4.127,4.127,0,0,1-.451-2.934A4.125,4.125,0,0,1,181.115,27.121Zm17.634,2.689,1.752,0.524-2.827,9.441,3.155,0.944,2.826-9.441,2.358,0.706,0.743-2.481L204.4,28.8l0.252-.842a1.933,1.933,0,0,1,.666-1.14,1.347,1.347,0,0,1,1.078-.026,6.513,6.513,0,0,1,1.394.613l1.085-2.073a9.164,9.164,0,0,0-2.517-1.194,4.721,4.721,0,0,0-2.312-.184,2.645,2.645,0,0,0-1.54.854,6.228,6.228,0,0,0-.992,2.15l-0.269.9-1.751-.524ZM213.8,34.83l1.678,0.725L211.568,44.6l3.024,1.305L218.5,36.86l2.26,0.976,1.026-2.378-2.259-.976,0.348-.807a1.937,1.937,0,0,1,.794-1.055,1.349,1.349,0,0,1,1.074.1,6.533,6.533,0,0,1,1.314.771l1.319-1.932a9.153,9.153,0,0,0-2.361-1.479,4.722,4.722,0,0,0-2.275-.452,2.64,2.64,0,0,0-1.629.669,6.208,6.208,0,0,0-1.235,2.019l-0.372.861-1.678-.725Zm17.53,17.013A2.017,2.017,0,0,1,230,51.53a2.493,2.493,0,0,1-1.2-1.68,3.332,3.332,0,0,1,.5-2.362l7.055,4.276q2.022-3.2,1.6-5.6a5.524,5.524,0,0,0-2.8-3.84,5.325,5.325,0,0,0-4.4-.621,6.871,6.871,0,0,0-3.9,3.306,7.129,7.129,0,0,0-1.171,4.306,5.569,5.569,0,0,0,3.01,4.3,5.869,5.869,0,0,0,3.41.964,5.382,5.382,0,0,0,3.133-1.314l-2.52-2.172A2.607,2.607,0,0,1,231.327,51.843Zm-0.937-6.05a3.038,3.038,0,0,1,1.7-1.466,2.376,2.376,0,0,1,3.008,1.775,3.169,3.169,0,0,1-.5,2.242ZM246.067,60.9a19.547,19.547,0,0,1,2.858-3.051,2.6,2.6,0,0,1,1.457-.586,1.826,1.826,0,0,1,1.148.449,2.885,2.885,0,0,1,.854,1.4l2.609-1.574a4.177,4.177,0,0,0-1.282-1.855,2.6,2.6,0,0,0-1.354-.595,5.319,5.319,0,0,0-2.14.382l1.122-1.368-2.365-1.939-7.891,9.624,2.547,2.088Zm18.044,24.222,2.593-2.029L264.675,80.5l-2.594,2.029Zm15.843,27.254,18.2-1.319-1.488-3.365-13.33,1.293,9.872-9.117-1.521-3.441-13.231,12.562Zm19.3,12.665,2.931-.831-0.9-3.168-2.931.831Zm-13.6,3.856,11.974-3.395-0.9-3.168-11.973,3.395Zm5.81,15.8a2.018,2.018,0,0,1-.6-1.227,2.494,2.494,0,0,1,.533-2,3.335,3.335,0,0,1,2.142-1.115l1.183,8.164q3.756-.472,5.341-2.325a5.522,5.522,0,0,0,1.186-4.6,5.327,5.327,0,0,0-2.32-3.8,6.875,6.875,0,0,0-5.028-.905,7.127,7.127,0,0,0-4.068,1.833,5.569,5.569,0,0,0-1.41,5.059,5.873,5.873,0,0,0,1.424,3.246,5.386,5.386,0,0,0,3.006,1.583l0.074-3.327A2.608,2.608,0,0,1,291.464,144.692Zm4.074-4.569a3.035,3.035,0,0,1,2.21.378,2.288,2.288,0,0,1,1.032,1.65,2.262,2.262,0,0,1-.491,1.8,3.163,3.163,0,0,1-2.045,1.042ZM290,164.182l7.929,2.373-8.07,1.879-0.1,3.162L302.06,176l0.107-3.244-8.073-2.647,8.22-1.8,0.1-3.174-8.081-2.413,8.229-2.061,0.106-3.2L290.1,160.985Zm3.564,39.007a2.362,2.362,0,0,1-.1,1.411,2.8,2.8,0,0,1-.937,1.554,1.706,1.706,0,0,1-1.432.023l-0.312-.1a17.893,17.893,0,0,1,.232-3.292,11.064,11.064,0,0,0,.089-2.727,3.292,3.292,0,0,0-.761-1.737,3.539,3.539,0,0,0-1.629-1.067,3.467,3.467,0,0,0-2.851.228,4.241,4.241,0,0,0-1.937,2.552,5.161,5.161,0,0,0-.252,2.076,5.94,5.94,0,0,0,.605,2.1c-0.067,0-.2,0-0.4-0.009q-0.671-.024-1.023,0l-1.018,3.095a7.031,7.031,0,0,1,1.772-.04,13.389,13.389,0,0,1,2.348.605l3.64,1.235a6.769,6.769,0,0,0,2.937.5,3.271,3.271,0,0,0,1.732-1.027,7.887,7.887,0,0,0,1.521-2.954,6.357,6.357,0,0,0,.319-3.744,4.66,4.66,0,0,0-2-2.483l-1.446,2.67A2.415,2.415,0,0,1,293.563,203.189Zm-5.442,2.01a6.543,6.543,0,0,1-1.484-.624,2.054,2.054,0,0,1-.79-1.087,2.852,2.852,0,0,1-.026-1.8,1.8,1.8,0,0,1,.889-1.089,1.612,1.612,0,0,1,1.3-.116,1.371,1.371,0,0,1,.9.974,6.051,6.051,0,0,1-.015,1.883,20.488,20.488,0,0,0-.147,2.061Zm-11.45,13.526,15.467,7.479,1.433-2.965-15.466-7.478Zm-6.609,11.638,14.592,9.067,1.738-2.8L271.8,227.566ZM255.691,250.01a6.951,6.951,0,0,0-3.59,2.093,6.334,6.334,0,0,0-2.147,3.848,3.759,3.759,0,0,0,1.048,3.1,3.047,3.047,0,0,0,2.455,1.02,9.17,9.17,0,0,0,3.644-1.538,12.309,12.309,0,0,1,2.84-1.5,0.729,0.729,0,0,1,.653.194,0.781,0.781,0,0,1,.2.739,3.581,3.581,0,0,1-1.071,1.568,2.776,2.776,0,0,1-1.4.84,1.924,1.924,0,0,1-1.32-.262L255.2,262.7a4.253,4.253,0,0,0,2.946.55,6.906,6.906,0,0,0,3.287-2.075,5.959,5.959,0,0,0,2.046-3.566,3.452,3.452,0,0,0-1-2.832,3.207,3.207,0,0,0-3.018-.957,17.754,17.754,0,0,0-4.723,2.405,2.631,2.631,0,0,1-1.089.465,0.864,0.864,0,0,1-.6-0.278,1.046,1.046,0,0,1-.309-0.93,3.263,3.263,0,0,1,1.039-1.683,2.889,2.889,0,0,1,1.635-.913,2.413,2.413,0,0,1,1.633.438l2-2.68A4.751,4.751,0,0,0,255.691,250.01ZM237.2,268.284a2.017,2.017,0,0,1,.812-1.1,2.494,2.494,0,0,1,2.018-.444A3.332,3.332,0,0,1,242,268.13l-6.708,4.8q2.148,3.119,4.52,3.675a5.529,5.529,0,0,0,4.632-1.061,5.325,5.325,0,0,0,2.3-3.806,6.868,6.868,0,0,0-1.506-4.881,7.135,7.135,0,0,0-3.5-2.771,5.567,5.567,0,0,0-5.141,1.074,5.859,5.859,0,0,0-2.228,2.756,5.382,5.382,0,0,0-.025,3.4l2.989-1.463A2.6,2.6,0,0,1,237.2,268.284Zm5.931,1.518a3.037,3.037,0,0,1,.679,2.137,2.376,2.376,0,0,1-2.815,2.067,3.175,3.175,0,0,1-1.866-1.338Zm-20.059,8.468a19.582,19.582,0,0,1,1.68,3.829,2.605,2.605,0,0,1-.036,1.57,1.83,1.83,0,0,1-.864.879,2.909,2.909,0,0,1-1.622.235l0.42,3.017a4.176,4.176,0,0,0,2.21-.448,2.607,2.607,0,0,0,1.08-1.01,5.333,5.333,0,0,0,.491-2.118l0.816,1.57,2.714-1.41-5.739-11.043-2.922,1.518ZM203.55,282.4l-0.563,13.38,3.2-1.117,0.14-6.777q0-.56-0.016-1.111-0.019-.267-0.031-1.119l1.341,1.778,4.308,5.223,3.263-1.14-8.84-10.1ZM190,300.561l0.615,2.984,3.225-.665-0.615-2.984Zm-2.855-13.841,2.514,12.188,3.225-.665-2.514-12.188Zm-18.02,13.952a6.014,6.014,0,0,0,3.676.716,5.787,5.787,0,0,0,4.272-2.028,7.85,7.85,0,0,0-.68-9.544,5.7,5.7,0,0,0-4.466-1.406,5.988,5.988,0,0,0-3.741,1.408,5.741,5.741,0,0,0-1.687,3.494l3.265,0.317a3.209,3.209,0,0,1,.71-1.89,2.222,2.222,0,0,1,1.493-.642,2.446,2.446,0,0,1,2.059.769,5.031,5.031,0,0,1,.966,3.067,4.352,4.352,0,0,1-.526,2.887,2.458,2.458,0,0,1-1.9.988,2.244,2.244,0,0,1-1.537-.382,2.357,2.357,0,0,1-.848-1.408l-3.2.817A5.419,5.419,0,0,0,169.122,300.672Zm-18.6-9.655a2.007,2.007,0,0,1,1.331-.311,2.488,2.488,0,0,1,1.823.971,3.326,3.326,0,0,1,.6,2.338l-8.221-.693q-0.387,3.767,1.058,5.728a5.526,5.526,0,0,0,4.214,2.2,5.325,5.325,0,0,0,4.222-1.4,6.866,6.866,0,0,0,2.018-4.692,7.123,7.123,0,0,0-.866-4.378,5.568,5.568,0,0,0-4.609-2.517,5.867,5.867,0,0,0-3.483.654,5.379,5.379,0,0,0-2.222,2.57l3.223,0.825A2.61,2.61,0,0,1,150.525,291.017Zm3.53,5a3.043,3.043,0,0,1-.868,2.068,2.378,2.378,0,0,1-3.484-.253,3.169,3.169,0,0,1-.553-2.228Zm-17.781-9a6.937,6.937,0,0,0-3.66-1.968,6.332,6.332,0,0,0-4.4.179,3.756,3.756,0,0,0-2.094,2.512,3.041,3.041,0,0,0,.413,2.625,9.142,9.142,0,0,0,3.214,2.3,12.342,12.342,0,0,1,2.764,1.638,0.728,0.728,0,0,1,.175.659,0.781,0.781,0,0,1-.524.558,3.571,3.571,0,0,1-1.9-.095,2.763,2.763,0,0,1-1.449-.756,1.92,1.92,0,0,1-.466-1.263l-3.153-.188a4.259,4.259,0,0,0,1.07,2.8,6.915,6.915,0,0,0,3.486,1.719,5.966,5.966,0,0,0,4.11-.118,3.452,3.452,0,0,0,1.893-2.332,3.208,3.208,0,0,0-.761-3.074,17.782,17.782,0,0,0-4.518-2.771,2.625,2.625,0,0,1-.965-0.685,0.868,0.868,0,0,1-.079-0.66,1.049,1.049,0,0,1,.632-0.749,3.259,3.259,0,0,1,1.979.007,2.889,2.889,0,0,1,1.632.916,2.426,2.426,0,0,1,.48,1.622l3.329,0.3A4.75,4.75,0,0,0,136.274,287.02Z"/>
  <circle class="cls-3" cx="161.5" cy="161.5" r="111.5"/>
  <circle class="cls-3" cx="161" cy="161" r="159.562"/>
</svg>
